<svg width="52" height="52" viewBox="0 0 52 52" fill="none" xmlns="http://www.w3.org/2000/svg">
<rect width="52" height="52" fill="#D9D9D9"/>
<rect width="32" height="32" transform="translate(10 10)" fill="white" style="mix-blend-mode:multiply"/>
<path d="M40.2719 24.6679C39.6379 17.8399 34.1589 12.3599 27.3329 11.7259C27.2049 11.1069 26.6559 10.6399 25.9999 10.6399C25.3379 10.6399 24.7869 11.1149 24.6659 11.7429C20.5659 12.1229 16.8749 14.2069 14.4419 17.5159C14.3029 17.4679 14.1559 17.4359 13.9999 17.4359C13.2499 17.4359 12.6399 18.0459 12.6399 18.7959C12.6399 19.1899 12.8109 19.5419 13.0789 19.7909C12.1339 21.7499 11.6399 23.8349 11.6399 25.9999C11.6399 28.7869 12.4439 31.4729 13.9539 33.7999C13.7609 34.0349 13.6399 34.3309 13.6399 34.6579C13.6399 35.4079 14.2499 36.0179 14.9999 36.0179C15.2199 36.0179 15.4239 35.9609 15.6079 35.8679C18.3179 38.7199 22.0819 40.3599 25.9999 40.3599C26.1989 40.3599 26.3599 40.1989 26.3599 39.9999V31.3059C26.9349 31.1469 27.3599 30.6249 27.3599 29.9999C27.3599 29.3749 26.9339 28.8529 26.3599 28.6939V13.3049C26.7489 13.1979 27.0669 12.9259 27.2329 12.5649C30.9069 13.6419 33.6399 19.3069 33.6399 25.9999H34.3609C34.3609 20.1139 32.2769 14.9639 29.2519 12.7739C34.7839 14.1419 39.0099 18.9199 39.5539 24.7219C39.0239 24.9079 38.6399 25.4079 38.6399 26.0009C38.6399 26.7509 39.2499 27.3609 39.9999 27.3609C40.7499 27.3609 41.3599 26.7509 41.3599 26.0009C41.3599 25.3429 40.8919 24.7939 40.2719 24.6679ZM24.6399 29.9999C24.6399 30.6249 25.0649 31.1469 25.6399 31.3059V39.6079C21.8769 39.2879 18.7679 34.0239 18.4099 27.2899C18.9589 27.1149 19.3599 26.6059 19.3599 25.9999C19.3599 25.3929 18.9579 24.8849 18.4089 24.7099C18.7359 18.5549 21.3599 13.5659 24.7669 12.5649C24.9329 12.9249 25.2519 13.1979 25.6399 13.3049V28.6939C25.0649 28.8529 24.6399 29.3749 24.6399 29.9999ZM17.9999 25.3599C18.3529 25.3599 18.6399 25.6469 18.6399 25.9999C18.6399 26.3529 18.3529 26.6399 17.9999 26.6399C17.6469 26.6399 17.3599 26.3529 17.3599 25.9999C17.3599 25.6469 17.6469 25.3599 17.9999 25.3599ZM13.9999 18.1559C14.3529 18.1559 14.6399 18.4429 14.6399 18.7959C14.6399 19.1489 14.3529 19.4359 13.9999 19.4359C13.6469 19.4359 13.3599 19.1489 13.3599 18.7959C13.3599 18.4429 13.6469 18.1559 13.9999 18.1559ZM14.3599 34.6579C14.3599 34.3049 14.6469 34.0179 14.9999 34.0179C15.3529 34.0179 15.6399 34.3049 15.6399 34.6579C15.6399 35.0109 15.3529 35.2979 14.9999 35.2979C14.6469 35.2979 14.3599 35.0109 14.3599 34.6579ZM16.1439 35.3869C16.2789 35.1759 16.3599 34.9269 16.3599 34.6579C16.3599 33.9079 15.7499 33.2979 14.9999 33.2979C14.8379 33.2979 14.6849 33.3309 14.5419 33.3829C13.1179 31.1789 12.3599 28.6359 12.3599 25.9999C12.3599 23.9519 12.8259 21.9799 13.7169 20.1249C13.8079 20.1439 13.9029 20.1549 13.9999 20.1549C14.7499 20.1549 15.3599 19.5449 15.3599 18.7949C15.3599 18.4619 15.2349 18.1609 15.0359 17.9239C16.9389 15.3439 19.6499 13.5579 22.7209 12.8029C19.9549 14.8329 17.9729 19.3489 17.6899 24.6789C17.0889 24.8199 16.6399 25.3569 16.6399 25.9999C16.6399 26.6429 17.0899 27.1809 17.6899 27.3219C17.9779 32.7299 20.0149 37.2459 22.7949 39.2479C20.2789 38.6319 17.9639 37.2969 16.1439 35.3869ZM26.6399 29.9999C26.6399 30.3529 26.3529 30.6399 25.9999 30.6399C25.6469 30.6399 25.3599 30.3529 25.3599 29.9999C25.3599 29.6469 25.6469 29.3599 25.9999 29.3599C26.3529 29.3599 26.6399 29.6469 26.6399 29.9999ZM25.9999 12.6399C25.6469 12.6399 25.3599 12.3529 25.3599 11.9999C25.3599 11.6469 25.6469 11.3599 25.9999 11.3599C26.3529 11.3599 26.6399 11.6469 26.6399 11.9999C26.6399 12.3529 26.3529 12.6399 25.9999 12.6399ZM39.9999 26.6399C39.6469 26.6399 39.3599 26.3529 39.3599 25.9999C39.3599 25.6469 39.6469 25.3599 39.9999 25.3599C40.3529 25.3599 40.6399 25.6469 40.6399 25.9999C40.6399 26.3529 40.3529 26.6399 39.9999 26.6399ZM28.6399 38.3599H31.3609V34.6399H28.6399V38.3599ZM29.3599 35.3599H30.6389V37.6389H29.3599V35.3599ZM32.6399 38.3599H35.3609V31.6399H32.6399V38.3599ZM33.3599 32.3599H34.6389V37.6389H33.3599V32.3599ZM36.6399 38.3599H39.3609V28.6399H36.6399V38.3599ZM37.3599 29.3599H38.6389V37.6389H37.3599V29.3599Z" fill="#161616"/>
</svg>
