<svg width="52" height="52" viewBox="0 0 52 52" fill="none" xmlns="http://www.w3.org/2000/svg">
<rect width="52" height="52" fill="#D9D9D9"/>
<rect width="32" height="32" transform="translate(10 10)" fill="white" style="mix-blend-mode:multiply"/>
<path d="M25.2539 17.7459L27.5089 19.9999L25.2549 22.2539L24.7459 21.7449L26.1309 20.3589H22.9999C22.0959 20.3589 21.3599 21.0949 21.3599 21.9989V28.9989H20.6399V21.9989C20.6399 20.6979 21.6989 19.6389 22.9999 19.6389H26.1309L24.7459 18.2529L25.2539 17.7459ZM23.2539 30.7449C23.3219 30.8119 23.3589 30.9039 23.3589 30.9999V34.9999C23.3589 35.1989 23.1979 35.3599 22.9989 35.3599H18.9999C18.9039 35.3599 18.8129 35.3219 18.7449 35.2549C18.6779 35.1869 18.6399 35.0949 18.6399 34.9999L18.6449 31.0019C18.6449 30.8029 18.8059 30.6419 19.0049 30.6419L22.9999 30.6399C23.0949 30.6399 23.1869 30.6779 23.2539 30.7449ZM22.6399 31.3599L19.3639 31.3609L19.3599 34.6399H22.6399V31.3599ZM37.3599 16.9999V29.9999C37.3599 36.2639 32.2629 41.3599 25.9999 41.3599C19.7359 41.3599 14.6399 36.2639 14.6399 29.9999V16.9999C14.6399 16.8679 14.7119 16.7469 14.8279 16.6839L25.8279 10.6839C25.9349 10.6249 26.0649 10.6249 26.1729 10.6839L37.1729 16.6839C37.2879 16.7469 37.3599 16.8679 37.3599 16.9999ZM36.6399 17.2139L25.9999 11.4099L15.3599 17.2139V29.9999C15.3599 35.8669 20.1329 40.6399 25.9999 40.6399C31.8669 40.6399 36.6399 35.8679 36.6399 29.9999V17.2139ZM33.3219 27.8389C33.3779 27.9499 33.3719 28.0829 33.3059 28.1899C33.2399 28.2949 33.1249 28.3599 32.9999 28.3599H28.9999C28.8749 28.3599 28.7599 28.2949 28.6929 28.1889C28.6279 28.0829 28.6219 27.9499 28.6769 27.8379L30.6769 23.8379C30.7999 23.5939 31.1979 23.5939 31.3219 23.8379L33.3219 27.8389ZM32.4179 27.6399L30.9999 24.8049L29.5819 27.6389L32.4179 27.6399ZM28.7449 22.2539C28.6779 22.1869 28.6399 22.0949 28.6399 21.9999L28.6449 18.0009C28.6459 17.8019 28.8059 17.6419 29.0049 17.6419L32.9999 17.6399C33.0959 17.6399 33.1869 17.6779 33.2549 17.7449C33.3219 17.8129 33.3599 17.9039 33.3599 17.9999V21.9999C33.3599 22.1989 33.1989 22.3599 32.9999 22.3599H28.9999C28.9039 22.3599 28.8119 22.3219 28.7449 22.2539ZM29.3599 21.6399H32.6389V18.3599L29.3639 18.3609L29.3599 21.6399ZM27.3219 27.8389C27.3779 27.9499 27.3719 28.0829 27.3059 28.1899C27.2399 28.2949 27.1249 28.3599 26.9999 28.3599H22.9999C22.8749 28.3599 22.7589 28.2949 22.6939 28.1889C22.6279 28.0829 22.6219 27.9499 22.6779 27.8379L24.6779 23.8379C24.7989 23.5939 25.1999 23.5939 25.3219 23.8379L27.3219 27.8389ZM26.4169 27.6399L24.9999 24.8049L23.5829 27.6389L26.4169 27.6399Z" fill="#161616"/>
</svg>
