<svg width="52" height="52" viewBox="0 0 52 52" fill="none" xmlns="http://www.w3.org/2000/svg">
<rect width="52" height="52" fill="#D9D9D9"/>
<rect width="32" height="32" transform="translate(10 10)" fill="white" style="mix-blend-mode:multiply"/>
<path d="M41 41.3599H11V40.6399H11.64V29.9999C11.64 29.8009 11.801 29.6399 12 29.6399H17.64V28.9999C17.64 28.8009 17.801 28.6399 18 28.6399H34C34.199 28.6399 34.36 28.8009 34.36 28.9999V29.6399H40C40.199 29.6399 40.36 29.8009 40.36 29.9999V40.6399H41V41.3599ZM34.36 40.6399H39.639V30.3599H34.36V40.6399ZM18.36 40.6399H33.64V29.3599H18.36V40.6399ZM12.36 40.6399H17.64V30.3599H12.36V40.6399ZM37.36 39.9999H36.64V36.9999H37.361L37.36 39.9999ZM30.36 39.9999H29.64V36.9999H30.361L30.36 39.9999ZM26.36 39.9999H25.64V36.9999H26.36V39.9999ZM22.36 39.9999H21.64V36.9999H22.36V39.9999ZM15.36 39.9999H14.64V36.9999H15.36V39.9999ZM37.36 34.9999H36.64V31.9999H37.361L37.36 34.9999ZM30.36 34.9999H29.64V31.9999H30.361L30.36 34.9999ZM26.36 34.9999H25.64V31.9999H26.36V34.9999ZM22.36 34.9999H21.64V31.9999H22.36V34.9999ZM15.36 34.9999H14.64V31.9999H15.36V34.9999ZM32.36 26.9999H31.64V23.3599H20.36V26.9999H19.64V22.9999C19.64 19.6139 22.3 16.8369 25.64 16.6499V11.9999C25.64 11.8009 25.801 11.6399 26 11.6399H29C29.199 11.6399 29.36 11.8009 29.36 11.9999V13.9999C29.36 14.1989 29.199 14.3599 29 14.3599H26.36V16.6499C29.7 16.8379 32.36 19.6139 32.36 22.9999V26.9999ZM20.372 22.6399H31.629C31.442 19.6969 28.989 17.3599 26 17.3599C23.011 17.3599 20.558 19.6969 20.372 22.6399ZM26.36 13.6399H28.64V12.3599H26.36V13.6399ZM29.36 26.9999H28.64V24.9999H29.361L29.36 26.9999ZM26.36 26.9999H25.64V24.9999H26.36V26.9999ZM23.36 26.9999H22.64V24.9999H23.36V26.9999Z" fill="#161616"/>
</svg>
