<svg width="52" height="52" viewBox="0 0 52 52" fill="none" xmlns="http://www.w3.org/2000/svg">
<rect width="52" height="52" fill="#D9D9D9"/>
<rect width="32" height="32" transform="translate(10 10)" fill="white" style="mix-blend-mode:multiply"/>
<path d="M36.3599 40.9999H35.6399V33.9999C35.6399 33.8489 35.7359 33.7129 35.8779 33.6609C36.7299 33.3529 37.6399 32.6489 37.6399 31.5989V27.5819C37.6399 25.7749 36.2609 24.3589 34.4999 24.3589C32.7389 24.3589 31.3599 25.7789 31.3599 27.5919V31.6079C31.3599 32.6519 32.2699 33.3529 33.1219 33.6609C33.2649 33.7129 33.3599 33.8489 33.3599 33.9999V40.9999H32.6399V34.2449C31.3999 33.7159 30.6399 32.7239 30.6399 31.6079V27.5919C30.6399 25.3759 32.3359 23.6389 34.4999 23.6389C36.6639 23.6389 38.3599 25.3709 38.3599 27.5819V31.5999C38.3599 32.7199 37.5999 33.7159 36.3599 34.2459V40.9999ZM19.3599 40.9999H18.6399V33.9999C18.6399 33.8489 18.7349 33.7129 18.8769 33.6609C19.7289 33.3529 20.6399 32.6489 20.6399 31.5989V27.5819C20.6399 25.7749 19.2609 24.3589 17.4999 24.3589C15.7389 24.3589 14.3599 25.7789 14.3599 27.5919V31.6079C14.3599 32.6509 15.2709 33.3529 16.1229 33.6609C16.2649 33.7129 16.3599 33.8489 16.3599 33.9999V40.9999H15.6399V34.2449C14.3989 33.7159 13.6399 32.7239 13.6399 31.6079V27.5919C13.6399 25.3759 15.3349 23.6389 17.4999 23.6389C19.6649 23.6389 21.3599 25.3709 21.3599 27.5819V31.5999C21.3599 32.7199 20.6009 33.7149 19.3599 34.2459V40.9999ZM33.9999 22.3599V21.6399C36.5589 21.6399 38.6399 19.5579 38.6399 16.9999C38.6399 14.4419 36.5589 12.3599 33.9999 12.3599V11.6399C36.9549 11.6399 39.3599 14.0439 39.3599 16.9999C39.3599 19.9559 36.9549 22.3599 33.9999 22.3599ZM32.9999 22.3599H30.9999V21.6399H32.9999V22.3599ZM28.9999 22.3599H26.9999V21.6399H28.9999V22.3599ZM24.9999 22.3599H22.9999V21.6399H24.9999V22.3599ZM20.9999 22.3599H18.9999V21.6399H20.9999V22.3599ZM17.9999 22.3599C15.0439 22.3599 12.6399 19.9559 12.6399 16.9999C12.6399 14.0439 15.0439 11.6399 17.9999 11.6399V12.3599C15.4409 12.3599 13.3599 14.4409 13.3599 16.9999C13.3599 19.5589 15.4409 21.6399 17.9999 21.6399V22.3599ZM34.4999 19.3599C33.1979 19.3599 32.1399 18.3009 32.1399 16.9999C32.1399 15.6989 33.1989 14.6399 34.4999 14.6399C35.8009 14.6399 36.8599 15.6989 36.8599 16.9999C36.8599 18.3009 35.8019 19.3599 34.4999 19.3599ZM34.4999 15.3599C33.5959 15.3599 32.8599 16.0959 32.8599 16.9999C32.8599 17.9039 33.5949 18.6399 34.4999 18.6399C35.4049 18.6399 36.1399 17.9039 36.1399 16.9999C36.1399 16.0959 35.4039 15.3599 34.4999 15.3599ZM17.4999 19.3599C16.1989 19.3599 15.1399 18.3009 15.1399 16.9999C15.1399 15.6989 16.1989 14.6399 17.4999 14.6399C18.8009 14.6399 19.8599 15.6989 19.8599 16.9999C19.8599 18.3009 18.8009 19.3599 17.4999 19.3599ZM17.4999 15.3599C16.5959 15.3599 15.8599 16.0959 15.8599 16.9999C15.8599 17.9039 16.5959 18.6399 17.4999 18.6399C18.4039 18.6399 19.1399 17.9039 19.1399 16.9999C19.1399 16.0959 18.4039 15.3599 17.4999 15.3599ZM32.9999 12.3599H30.9999V11.6399H32.9999V12.3599ZM28.9999 12.3599H26.9999V11.6399H28.9999V12.3599ZM24.9999 12.3599H22.9999V11.6399H24.9999V12.3599ZM20.9999 12.3599H18.9999V11.6399H20.9999V12.3599Z" fill="#161616"/>
</svg>
