<svg width="240" height="68" viewBox="0 0 240 68" fill="none" xmlns="http://www.w3.org/2000/svg">
<g clip-path="url(#clip0_587_28437)">
<path d="M46.33 66.2189C46.215 66.1439 46.1 66.0089 45.995 65.8189L39.975 53.1889C39.845 52.9039 39.73 52.6639 39.615 52.4539C39.5 52.2339 39.475 52.0939 39.475 52.0189C39.475 51.9689 39.475 51.9389 39.485 51.9239C39.58 51.8939 39.67 51.8489 39.75 51.7939L39.85 51.7289V50.7189H33.79V51.7289L33.89 51.7939C33.96 51.8389 34.02 51.8789 34.08 51.9139C34.08 51.9289 34.09 51.9589 34.09 52.0189C34.09 52.1889 34.05 52.3639 33.975 52.5489C33.89 52.7589 33.77 53.0389 33.625 53.3789L28.09 65.4539C28 65.6389 27.86 65.8439 27.685 66.0639C27.535 66.2539 27.34 66.3689 27.1 66.4089L26.915 66.4389V67.5189H32.34V66.4039H32.12C31.88 66.4039 31.75 66.3739 31.68 66.3439C31.64 66.3289 31.635 66.2139 31.635 66.1789C31.635 66.0839 31.66 65.9639 31.715 65.8289C31.775 65.6789 31.85 65.5039 31.945 65.3139L32.925 63.4289H40.605L41.545 65.4139C41.62 65.6089 41.68 65.7689 41.73 65.8939C41.77 65.9939 41.79 66.0989 41.79 66.2189C41.79 66.3839 41.73 66.4189 41.7 66.4339C41.595 66.4889 41.5 66.5189 41.415 66.5189H41.195V67.5189H46.92V66.4589L46.76 66.4139C46.61 66.3689 46.47 66.3039 46.34 66.2189H46.33ZM34.24 60.2339L36.555 54.7489L39.2 60.2339H34.24Z" fill="white"/>
<path d="M71.1301 66.1189C70.9251 65.9989 70.7251 65.8139 70.5501 65.5739L67.0851 60.5189C67.5101 60.3989 67.9351 60.2389 68.3401 60.0439C68.8551 59.7989 69.3301 59.4739 69.7551 59.0739C70.1801 58.6739 70.5301 58.1939 70.7901 57.6489C71.0501 57.0989 71.1851 56.4689 71.1851 55.7689C71.1851 53.9339 70.5251 52.6139 69.2151 51.8439C67.9451 51.0939 66.1701 50.7189 63.9351 50.7189H53.4551V51.8339H53.6751C54.0851 51.8339 54.1201 51.9989 54.1201 52.1689V66.0739C54.1201 66.2439 54.0851 66.4089 53.6751 66.4089H53.4551V67.5239H58.8451V66.4089H58.6251C58.5151 66.4089 58.3951 66.3739 58.2651 66.3039C58.2001 66.2689 58.1401 66.2189 58.1401 66.0739V60.9789H62.9651L65.8401 65.2739C66.2901 65.9039 66.3551 66.1839 66.3551 66.2989C66.3551 66.3389 66.3551 66.4089 66.0951 66.4089H65.8751V67.5239H72.0051V66.4639L71.8401 66.4189C71.5851 66.3489 71.3501 66.2489 71.1301 66.1239V66.1189ZM63.8651 57.7789H58.2151V53.9139H63.8651C65.0801 53.9139 65.9751 54.0839 66.5201 54.4189C67.0351 54.7389 67.2901 55.1589 67.2901 55.6989C67.2901 57.0989 66.1701 57.7789 63.8701 57.7789H63.8651Z" fill="white"/>
<path d="M94.1599 63.7689C94.1599 63.9439 94.0949 64.0689 93.9599 64.1639C93.7999 64.2739 93.5949 64.3289 93.3399 64.3289H83.5249V52.1739C83.5249 52.0739 83.5249 51.8389 84.1599 51.8389H84.3799V50.7239H78.5449V51.8389H78.7649C79.5099 51.8389 79.5099 52.0889 79.5099 52.1739V66.0789C79.5099 66.1639 79.5099 66.4139 78.7649 66.4139H78.5449V67.5289H93.3399C93.6299 67.5289 93.8699 67.5389 94.0549 67.5639C94.1399 67.5739 94.1549 67.5939 94.1549 67.6789V67.8989H95.2699V63.5489H94.1549V63.7689H94.1599Z" fill="white"/>
<path d="M101.375 51.8339H101.595C102.06 51.8339 102.235 51.8989 102.3 51.9339C102.355 51.9689 102.415 52.0189 102.415 52.1689V66.0739C102.415 66.2239 102.36 66.2789 102.3 66.3089C102.235 66.3439 102.06 66.4089 101.595 66.4089H101.375V67.5239H107.47V66.4089H107.25C106.705 66.4089 106.43 66.2939 106.43 66.0739V52.1689C106.43 51.9489 106.705 51.8339 107.25 51.8339H107.47V50.7189H101.375V51.8339Z" fill="white"/>
<path d="M128.19 51.8339H128.41C128.93 51.8339 128.93 52.0539 128.93 52.1689V61.6839L120.39 52.6439C119.91 52.1639 119.735 51.9389 119.67 51.8389C119.68 51.8389 119.695 51.8389 119.705 51.8339L119.895 51.8089V50.7239H113.985V51.8389H114.205C114.615 51.8389 114.65 52.0039 114.65 52.1739V66.0789C114.65 66.2489 114.615 66.4139 114.205 66.4139H113.985V67.5289H119V66.4139H118.78C118.22 66.4139 118.22 66.1889 118.22 66.0789V55.8239L127.055 65.2289C127.37 65.5739 127.635 65.8539 127.855 66.0839C128.02 66.2589 128.095 66.3589 128.125 66.4139C128.125 66.4139 128.115 66.4139 128.11 66.4139H127.89V67.5289H133.165V66.4139H132.945C132.535 66.4139 132.5 66.2489 132.5 66.0789V52.1739C132.5 52.0039 132.535 51.8389 132.945 51.8389H133.165V50.7239H128.185V51.8389L128.19 51.8339Z" fill="white"/>
<path d="M145.28 54.084C145.605 53.944 145.99 53.844 146.41 53.784C146.845 53.724 147.31 53.694 147.79 53.694C149.05 53.694 150.205 53.839 151.225 54.129C152.23 54.414 152.975 54.764 153.445 55.164L153.455 55.174C153.64 55.314 153.695 55.419 153.705 55.479C153.73 55.629 153.755 55.779 153.78 55.924L153.8 56.054L154.775 56.379L156.8 52.574L156.16 51.934L156.015 52.004C155.86 52.079 155.73 52.154 155.625 52.219C155.59 52.239 155.5 52.279 155.295 52.279C155.22 52.279 155.025 52.244 154.6 52.024C154.235 51.834 153.76 51.624 153.185 51.399C152.605 51.174 151.89 50.964 151.05 50.774C150.205 50.584 149.185 50.489 148.01 50.489C145.595 50.489 143.69 50.979 142.34 51.944C140.97 52.924 140.275 54.264 140.275 55.914C140.275 57.039 140.605 57.924 141.255 58.544C141.885 59.149 142.68 59.614 143.625 59.934C144.55 60.249 145.565 60.474 146.64 60.614C147.69 60.749 148.69 60.884 149.61 61.024C150.505 61.159 151.255 61.344 151.845 61.584C152.365 61.794 152.62 62.119 152.62 62.569C152.62 62.974 152.475 63.289 152.18 63.529C151.855 63.794 151.455 64.009 150.99 64.159C150.515 64.314 150.02 64.419 149.53 64.464C149.035 64.514 148.61 64.539 148.27 64.539C147.91 64.539 147.405 64.479 146.77 64.359C146.125 64.239 145.47 64.069 144.825 63.864C144.19 63.659 143.64 63.409 143.19 63.109C142.79 62.844 142.585 62.564 142.585 62.274C142.585 62.154 142.59 62.044 142.6 61.944C142.615 61.824 142.62 61.709 142.62 61.604V61.434L141.56 61.154L139.71 65.659L140.54 66.254L140.67 66.094C140.75 65.994 140.84 65.949 140.945 65.949C140.965 65.949 141.1 65.969 141.72 66.214C142.2 66.404 142.785 66.604 143.465 66.814C144.15 67.029 144.92 67.214 145.755 67.379C146.595 67.544 147.455 67.624 148.305 67.624C149.155 67.624 150.07 67.559 151.03 67.434C152.005 67.309 152.91 67.039 153.72 66.634C154.54 66.224 155.235 65.654 155.785 64.934C156.345 64.204 156.63 63.259 156.63 62.124C156.63 60.989 156.3 60.064 155.655 59.404C155.025 58.764 154.23 58.269 153.285 57.939C152.355 57.614 151.34 57.379 150.265 57.239C149.215 57.104 148.215 56.969 147.295 56.829C146.4 56.694 145.645 56.514 145.055 56.284C144.53 56.079 144.285 55.774 144.285 55.319C144.285 55.024 144.365 54.784 144.53 54.589C144.705 54.379 144.95 54.209 145.265 54.074L145.28 54.084Z" fill="white"/>
<path d="M178.8 51.8389C177.76 51.0939 176.2 50.7189 174.155 50.7189H163.115V51.8339H163.335C164.04 51.8339 164.04 52.0789 164.04 52.1689V66.0739C164.04 66.1639 164.04 66.4089 163.335 66.4089H163.115V67.5239H168.84V66.4089H168.62C168.06 66.4089 168.06 66.1839 168.06 66.0739V60.7189H174.155C176.2 60.7189 177.76 60.3639 178.795 59.6589C179.86 58.9389 180.4 57.6289 180.4 55.7739C180.4 53.9189 179.86 52.5989 178.8 51.8389ZM175.775 57.1589C175.325 57.3989 174.755 57.5239 174.08 57.5239H168.055V53.9189H174.08C174.75 53.9189 175.32 54.0639 175.765 54.3489C176.185 54.6189 176.39 55.0839 176.39 55.7789C176.39 56.4739 176.19 56.9439 175.78 57.1639L175.775 57.1589Z" fill="white"/>
<path d="M186.76 51.8339H186.98C187.445 51.8339 187.62 51.8989 187.685 51.9339C187.74 51.9689 187.8 52.0189 187.8 52.1689V66.0739C187.8 66.2239 187.745 66.2789 187.685 66.3089C187.62 66.3439 187.445 66.4089 186.98 66.4089H186.76V67.5239H192.855V66.4089H192.635C192.09 66.4089 191.815 66.2939 191.815 66.0739V52.1689C191.815 51.9489 192.09 51.8339 192.635 51.8339H192.855V50.7189H186.76V51.8339Z" fill="white"/>
<path d="M216.29 65.7539C215.95 65.3789 215.63 65.0039 215.33 64.6289L209.595 57.5139L215.63 52.6389C216.2 52.1889 216.63 51.9089 216.9 51.8189L217.05 51.7689V50.7189H210.47V51.7189H210.69C210.775 51.7189 210.87 51.7489 210.975 51.8039C211.035 51.8339 211.055 51.8639 211.06 51.8839C211.025 51.9389 210.9 52.0939 210.435 52.5039C209.97 52.9089 209.37 53.4139 208.655 54.0039C207.935 54.5989 207.125 55.2539 206.24 55.9539C205.48 56.5539 204.725 57.1639 204 57.7589V52.1689C204 52.0439 204 51.8339 204.485 51.8339H204.705V50.7189H199.39V51.8339H199.61C199.92 51.8339 199.98 51.9589 199.98 52.1689V66.0739C199.98 66.2839 199.92 66.4089 199.61 66.4089H199.39V67.5239H204.705V66.4089H204.485C204 66.4089 204 66.1989 204 66.0739V62.0189L206.645 59.9189L211.08 65.3289C211.395 65.6939 211.605 65.9589 211.71 66.1239C211.805 66.2739 211.835 66.3539 211.84 66.3939C211.815 66.4039 211.76 66.4139 211.655 66.4139H211.435V67.5289H217.38V66.4689L217.22 66.4239C216.915 66.3389 216.6 66.1139 216.285 65.7639L216.29 65.7539Z" fill="white"/>
<path d="M237.985 63.584V63.804C237.985 63.954 237.92 64.064 237.785 64.159C237.625 64.269 237.42 64.324 237.165 64.324H227.87V60.384H233.075C233.55 60.384 233.92 60.414 234.18 60.469C234.25 60.484 234.3 60.509 234.315 60.539C234.33 60.569 234.33 60.624 234.315 60.699L234.24 60.979H235.495V56.594H234.38V56.814C234.38 57.059 234.285 57.089 234.24 57.104C234.065 57.159 233.775 57.189 233.375 57.189H227.875V53.9139H236.725C237.655 53.9139 237.655 54.264 237.655 54.399V54.619H238.77V50.049H237.655V50.269C237.655 50.379 237.655 50.714 236.725 50.714H223.305V51.8289H223.525C223.605 51.8289 223.685 51.859 223.77 51.9189C223.795 51.939 223.86 51.9839 223.86 52.1639V66.069C223.86 66.249 223.795 66.299 223.77 66.314C223.685 66.374 223.605 66.404 223.525 66.404H223.305V67.519H237.17C237.46 67.519 237.7 67.529 237.885 67.554C237.945 67.559 237.985 67.569 237.985 67.704V67.924H239.1V63.574H237.985V63.584Z" fill="white"/>
<path d="M14.685 51.8339H14.905C14.95 51.8339 14.96 51.8439 14.96 51.8439C14.96 51.8439 14.98 51.8639 14.98 51.9439C14.98 51.9489 14.97 52.0189 14.86 52.2339C14.765 52.4139 14.63 52.6489 14.45 52.9589L10.075 60.9289L5.73 52.9189C5.555 52.6189 5.425 52.3939 5.345 52.2389C5.25 52.0689 5.24 51.9839 5.24 51.9539C5.24 51.8789 5.24 51.8439 5.39 51.8439H5.61V50.7289H0V51.8439H0.22C0.34 51.8439 0.385 51.8639 0.4 51.8739C0.41 51.9039 0.445 52.0139 0.445 52.3639V65.9689C0.445 66.2539 0.39 66.3189 0.395 66.3189C0.335 66.3689 0.265 66.404 0.18 66.419L0 66.4539V67.5289H4.645V66.4139H4.425C4.045 66.4139 4.015 66.2489 4.015 66.0789V56.4839L9.68 67.5289H10.245L16.285 56.3739V66.1239C16.305 66.2139 16.3 66.274 16.27 66.309C16.245 66.339 16.15 66.4139 15.835 66.4139H15.615V67.5289H20.37V66.4139H20.15C20.075 66.4139 20.005 66.3889 19.935 66.3289C19.88 66.2889 19.855 66.2039 19.855 66.0789V52.1039C19.855 51.9989 19.875 51.9239 19.905 51.9089C19.985 51.8639 20.065 51.8439 20.15 51.8439H20.37V50.7289H14.685V51.8439V51.8339Z" fill="white"/>
<path d="M88.0001 21.414C86.8101 21.559 85.8901 22.494 85.8051 23.649C85.6901 25.239 87.1701 26.509 88.7951 26.209L109.495 22.464L107.07 19.009L87.9951 21.414H88.0001Z" fill="#CBCBCA"/>
<path d="M152.52 13.2739L128.045 16.3639L126.395 19.4089L152.73 14.6439C153.065 14.5839 153.31 14.2889 153.3 13.9439C153.3 13.8989 153.295 13.8589 153.285 13.8139C153.21 13.4689 152.885 13.2239 152.52 13.2689V13.2739Z" fill="#CBCBCA"/>
<path d="M85.8154 24.0789C85.9654 25.4639 87.3204 26.4839 88.8004 26.2089L109.5 22.4639L108.24 20.6689L85.8154 24.0789Z" fill="#7D7D7D"/>
<path d="M153.285 13.819L127.28 17.774L126.395 19.409L152.73 14.644C153.065 14.584 153.31 14.284 153.3 13.944C153.3 13.899 153.295 13.859 153.285 13.814V13.819Z" fill="#7D7D7D"/>
<path d="M129.65 33.9839H138.755V32.2339H138.555C138.345 32.2339 138.155 32.1639 137.965 32.0139C137.795 31.8789 137.705 31.6439 137.705 31.3089V19.1639L131.005 20.9989V31.3739C131.06 31.6089 131.03 31.7989 130.92 31.9339C130.755 32.1339 130.395 32.2389 129.855 32.2389H129.655V33.9889L129.65 33.9839Z" fill="white"/>
<path d="M98.1304 33.984H107.01V32.234H106.81C105.845 32.234 105.735 31.704 105.735 31.309V25.569L99.0354 27.179V31.084C99.0354 31.599 98.9554 31.829 98.8904 31.929L98.8454 31.984C98.6954 32.114 98.5154 32.199 98.2954 32.239L98.1354 32.269V33.984H98.1304Z" fill="white"/>
<path d="M127.935 16.389L131 10.724V15.999L137.7 15.154V3.08897C137.7 2.76897 137.78 2.56397 137.935 2.47397C138.135 2.36397 138.335 2.30897 138.555 2.30897H138.755V0.563965H127.775V2.31397H127.975C128.085 2.31397 128.17 2.33397 128.225 2.37397L128.265 2.40397C128.34 2.47897 128.375 2.60397 128.375 2.78397C128.365 2.92397 128.27 3.15897 128.1 3.48397C127.905 3.85397 127.635 4.32897 127.27 4.94897L118.22 21.434L109.23 4.85397C108.875 4.24897 108.62 3.79397 108.45 3.47897C108.255 3.11397 108.21 2.89897 108.21 2.78397C108.21 2.44397 108.37 2.30897 108.76 2.30897H108.96V0.563965H98.1304V2.31397H98.3304C98.5554 2.31397 98.7204 2.34897 98.8254 2.40897L98.8954 2.45397L98.9254 2.52897C98.9754 2.65397 99.0354 2.93897 99.0354 3.61397V20.034L105.735 19.189V10.899L117.575 33.984H118.415L126.26 19.499L127.94 16.394L127.935 16.389Z" fill="white"/>
</g>
<defs>
<clipPath id="clip0_587_28437">
<rect width="239.1" height="67.365" fill="white" transform="translate(0 0.563965)"/>
</clipPath>
</defs>
</svg>
