<svg width="246" height="18" viewBox="0 0 246 18" fill="none" xmlns="http://www.w3.org/2000/svg">
<g clip-path="url(#clip0_587_4351)">
<path d="M52.5689 16.2361C52.4538 16.161 52.3387 16.0259 52.2336 15.8358L46.2086 3.19521C46.0785 2.90997 45.9634 2.66977 45.8483 2.45959C45.7332 2.23941 45.7082 2.09929 45.7082 2.02423C45.7082 1.97419 45.7082 1.94416 45.7182 1.92915C45.8133 1.89913 45.9034 1.85409 45.9834 1.79904L46.0835 1.73399V0.723145H40.0184V1.73399L40.1185 1.79904C40.1886 1.84408 40.2486 1.88411 40.3087 1.91914C40.3087 1.93416 40.3187 1.96418 40.3187 2.02423C40.3187 2.19437 40.2787 2.36952 40.2036 2.55467C40.1185 2.76485 39.9984 3.04508 39.8533 3.38537L34.3137 15.4705C34.2236 15.6556 34.0835 15.8608 33.9083 16.081C33.7582 16.2711 33.563 16.3862 33.3228 16.4263L33.1377 16.4563V17.5372H38.5672V16.4213H38.347C38.1068 16.4213 37.9767 16.3912 37.9067 16.3612C37.8666 16.3462 37.8616 16.2311 37.8616 16.1961C37.8616 16.101 37.8867 15.9809 37.9417 15.8458C38.0018 15.6956 38.0768 15.5205 38.1719 15.3303L39.1527 13.4438H46.8391L47.7799 15.4304C47.855 15.6256 47.915 15.7857 47.9651 15.9108C48.0051 16.0109 48.0251 16.116 48.0251 16.2361C48.0251 16.4012 47.9651 16.4363 47.9351 16.4513C47.83 16.5063 47.7349 16.5363 47.6498 16.5363H47.4296V17.5372H53.1594V16.4763L52.9993 16.4313C52.8492 16.3862 52.709 16.3212 52.5789 16.2361H52.5689ZM40.4688 10.2461L42.7858 4.75651L45.433 10.2461H40.4688Z" fill="white"/>
<path d="M77.3895 16.136C77.1843 16.0159 76.9841 15.8308 76.809 15.5906L73.3411 10.5313C73.7665 10.4112 74.1918 10.2511 74.5971 10.0559C75.1126 9.81073 75.588 9.48546 76.0133 9.08513C76.4387 8.68479 76.789 8.20439 77.0492 7.65894C77.3094 7.10848 77.4445 6.47795 77.4445 5.77736C77.4445 3.94083 76.784 2.61973 75.4729 1.84908C74.2018 1.09846 72.4253 0.723145 70.1885 0.723145H59.6997V1.83908H59.9199C60.3302 1.83908 60.3653 2.00421 60.3653 2.17436V16.091C60.3653 16.2611 60.3302 16.4263 59.9199 16.4263H59.6997V17.5422H65.0942V16.4263H64.874C64.7639 16.4263 64.6438 16.3912 64.5137 16.3212C64.4487 16.2861 64.3886 16.2361 64.3886 16.091V10.9917H69.2177L72.0951 15.2903C72.5454 15.9208 72.6105 16.2011 72.6105 16.3162C72.6105 16.3562 72.6105 16.4263 72.3503 16.4263H72.1301V17.5422H78.2652V16.4813L78.1001 16.4363C77.8449 16.3662 77.6097 16.2661 77.3895 16.141V16.136ZM70.1184 7.78904H64.4637V3.92081H70.1184C71.3344 3.92081 72.2302 4.09096 72.7756 4.42624C73.2911 4.7465 73.5463 5.16685 73.5463 5.70731C73.5463 7.10848 72.4253 7.78904 70.1234 7.78904H70.1184Z" fill="white"/>
<path d="M100.439 13.779C100.439 13.9542 100.374 14.0793 100.239 14.1744C100.079 14.2845 99.8736 14.3395 99.6184 14.3395H89.7952V2.17436C89.7952 2.07427 89.7952 1.83908 90.4307 1.83908H90.6509V0.723145H84.811V1.83908H85.0312C85.7768 1.83908 85.7768 2.08929 85.7768 2.17436V16.091C85.7768 16.176 85.7768 16.4263 85.0312 16.4263H84.811V17.5422H99.6184C99.9086 17.5422 100.149 17.5522 100.334 17.5772C100.419 17.5872 100.434 17.6072 100.434 17.6923V17.9125H101.55V13.5589H100.434V13.779H100.439Z" fill="white"/>
<path d="M107.66 1.83908H107.88C108.345 1.83908 108.52 1.90413 108.585 1.93916C108.64 1.97419 108.701 2.02423 108.701 2.17436V16.091C108.701 16.2411 108.645 16.2961 108.585 16.3262C108.52 16.3612 108.345 16.4263 107.88 16.4263H107.66V17.5422H113.76V16.4263H113.54C112.994 16.4263 112.719 16.3112 112.719 16.091V2.17436C112.719 1.95417 112.994 1.83908 113.54 1.83908H113.76V0.723145H107.66V1.83908Z" fill="white"/>
<path d="M134.503 1.83908H134.723C135.243 1.83908 135.243 2.05926 135.243 2.17436V11.6973L126.696 2.64975C126.216 2.16935 126.04 1.94416 125.975 1.84408C125.985 1.84408 126 1.84408 126.01 1.83908L126.201 1.81406V0.723145H120.286V1.83908H120.506C120.916 1.83908 120.951 2.00421 120.951 2.17436V16.091C120.951 16.2611 120.916 16.4263 120.506 16.4263H120.286V17.5422H125.305V16.4263H125.085C124.524 16.4263 124.524 16.2011 124.524 16.091V5.8224L133.367 15.2353C133.682 15.5806 133.947 15.8608 134.167 16.091C134.332 16.2661 134.407 16.3662 134.437 16.4213C134.437 16.4213 134.427 16.4213 134.422 16.4213H134.202V17.5372H139.482V16.4213H139.261C138.851 16.4213 138.816 16.2561 138.816 16.086V2.17436C138.816 2.00421 138.851 1.83908 139.261 1.83908H139.482V0.723145H134.498V1.83908H134.503Z" fill="white"/>
<path d="M151.602 4.09117C151.927 3.95105 152.312 3.85097 152.732 3.79092C153.168 3.73087 153.633 3.70084 154.114 3.70084C155.375 3.70084 156.531 3.84596 157.551 4.13621C158.557 4.42144 159.303 4.77174 159.773 5.17207L159.783 5.18208C159.968 5.3222 160.024 5.42728 160.034 5.48733C160.059 5.63746 160.084 5.78759 160.109 5.93271L160.129 6.06282L161.104 6.38809L163.131 2.57991L162.491 1.93937L162.345 2.00943C162.19 2.08449 162.06 2.15956 161.955 2.22461C161.92 2.24463 161.83 2.28466 161.625 2.28466C161.55 2.28466 161.355 2.24963 160.929 2.02945C160.564 1.83929 160.089 1.62911 159.513 1.40392C158.933 1.17874 158.217 0.968561 157.376 0.778402C156.531 0.588243 155.51 0.493164 154.334 0.493164C151.917 0.493164 150.01 0.983574 148.659 1.94938C147.288 2.9302 146.592 4.27132 146.592 5.9227C146.592 7.04864 146.923 7.93438 147.573 8.5549C148.204 9.1604 148.999 9.62579 149.945 9.94606C150.871 10.2613 151.887 10.4865 152.963 10.6266C154.014 10.7617 155.014 10.8969 155.935 11.037C156.831 11.1721 157.581 11.3572 158.172 11.5974C158.692 11.8076 158.948 12.1329 158.948 12.5833C158.948 12.9886 158.803 13.3039 158.507 13.5441C158.182 13.8093 157.782 14.0245 157.316 14.1746C156.841 14.3297 156.345 14.4348 155.855 14.4798C155.36 14.5299 154.934 14.5549 154.594 14.5549C154.234 14.5549 153.728 14.4949 153.093 14.3748C152.447 14.2547 151.792 14.0845 151.146 13.8793C150.511 13.6742 149.96 13.424 149.51 13.1237C149.109 12.8585 148.904 12.5783 148.904 12.288C148.904 12.1679 148.909 12.0578 148.919 11.9577C148.934 11.8376 148.939 11.7225 148.939 11.6175V11.4473L147.878 11.1671L146.027 15.6758L146.858 16.2713L146.988 16.1112C147.068 16.0111 147.158 15.9661 147.263 15.9661C147.283 15.9661 147.418 15.9861 148.039 16.2313C148.519 16.4215 149.104 16.6216 149.785 16.8318C150.471 17.047 151.241 17.2321 152.077 17.3973C152.918 17.5624 153.778 17.6425 154.629 17.6425C155.48 17.6425 156.396 17.5774 157.356 17.4523C158.332 17.3272 159.238 17.057 160.049 16.6517C160.869 16.2413 161.565 15.6708 162.115 14.9502C162.676 14.2196 162.961 13.2738 162.961 12.1379C162.961 11.0019 162.631 10.0762 161.985 9.41562C161.355 8.77508 160.559 8.27967 159.613 7.94939C158.682 7.62412 157.667 7.38892 156.591 7.24881C155.54 7.11369 154.539 6.97858 153.618 6.83846C152.722 6.70335 151.967 6.5232 151.376 6.29301C150.851 6.08784 150.606 5.78258 150.606 5.3272C150.606 5.03195 150.686 4.79175 150.851 4.59659C151.026 4.38642 151.271 4.21627 151.587 4.08116L151.602 4.09117Z" fill="white"/>
<path d="M185.15 1.84408C184.109 1.09846 182.548 0.723145 180.501 0.723145H169.452V1.83908H169.672C170.377 1.83908 170.377 2.08428 170.377 2.17436V16.091C170.377 16.1811 170.377 16.4263 169.672 16.4263H169.452V17.5422H175.181V16.4263H174.961C174.401 16.4263 174.401 16.2011 174.401 16.091V10.7315H180.501C182.548 10.7315 184.109 10.3762 185.145 9.67062C186.211 8.95001 186.751 7.63892 186.751 5.78237C186.751 3.92582 186.211 2.60472 185.15 1.84408ZM182.122 7.16853C181.672 7.40873 181.101 7.53383 180.426 7.53383H174.396V3.92081H180.426C181.096 3.92081 181.667 4.06594 182.112 4.35117C182.533 4.6214 182.738 5.08679 182.738 5.78237C182.738 6.47795 182.538 6.94834 182.127 7.16853H182.122Z" fill="white"/>
<path d="M193.116 1.83908H193.336C193.802 1.83908 193.977 1.90413 194.042 1.93916C194.097 1.97419 194.157 2.02423 194.157 2.17436V16.091C194.157 16.2411 194.102 16.2961 194.042 16.3262C193.977 16.3612 193.802 16.4263 193.336 16.4263H193.116V17.5422H199.216V16.4263H198.996C198.451 16.4263 198.175 16.3112 198.175 16.091V2.17436C198.175 1.95417 198.451 1.83908 198.996 1.83908H199.216V0.723145H193.116V1.83908Z" fill="white"/>
<path d="M222.671 15.7707C222.331 15.3954 222.01 15.0201 221.71 14.6448L215.97 7.52382L222.01 2.64475C222.581 2.19437 223.011 1.91414 223.281 1.82406L223.432 1.77402V0.723145H216.846V1.72398H217.066C217.151 1.72398 217.246 1.75401 217.352 1.80905C217.412 1.83908 217.432 1.8691 217.437 1.88912C217.402 1.94416 217.276 2.09929 216.811 2.50964C216.346 2.91497 215.745 3.4204 215.03 4.01089C214.309 4.60639 213.498 5.26193 212.613 5.96252C211.852 6.56302 211.096 7.17353 210.371 7.76903V2.17436C210.371 2.04925 210.371 1.83908 210.856 1.83908H211.076V0.723145H205.757V1.83908H205.977C206.287 1.83908 206.347 1.96418 206.347 2.17436V16.091C206.347 16.3012 206.287 16.4263 205.977 16.4263H205.757V17.5422H211.076V16.4263H210.856C210.371 16.4263 210.371 16.2161 210.371 16.091V12.0326L213.018 9.93083L217.457 15.3454C217.772 15.7107 217.982 15.9759 218.087 16.141C218.182 16.2911 218.212 16.3712 218.217 16.4112C218.192 16.4213 218.137 16.4313 218.032 16.4313H217.812V17.5472H223.762V16.4863L223.602 16.4413C223.296 16.3562 222.981 16.131 222.666 15.7807L222.671 15.7707Z" fill="white"/>
<path d="M244.389 13.594V13.8142C244.389 13.9643 244.324 14.0744 244.189 14.1695C244.029 14.2796 243.824 14.3347 243.568 14.3347H234.266V10.3914H239.475C239.95 10.3914 240.321 10.4214 240.581 10.4764C240.651 10.4915 240.701 10.5165 240.716 10.5465C240.731 10.5765 240.731 10.6316 240.716 10.7066L240.641 10.9869H241.897V6.5982H240.781V6.81838C240.781 7.06359 240.686 7.09361 240.641 7.10863C240.466 7.16367 240.176 7.1937 239.775 7.1937H234.271V3.92096H243.128C244.059 3.92096 244.059 4.27126 244.059 4.40637V4.62655H245.175V0.0527344H244.059V0.272918C244.059 0.38301 244.059 0.71829 243.128 0.71829H229.697V1.83923H229.917C229.997 1.83923 230.077 1.86925 230.162 1.9293C230.187 1.94932 230.252 1.99436 230.252 2.17451V16.0911C230.252 16.2713 230.187 16.3213 230.162 16.3363C230.077 16.3964 229.997 16.4264 229.917 16.4264H229.697V17.5423H243.573C243.864 17.5423 244.104 17.5523 244.289 17.5774C244.349 17.5824 244.389 17.5924 244.389 17.7275V17.9477H245.505V13.594H244.389Z" fill="white"/>
<path d="M20.8975 1.83908H21.1177C21.1627 1.83908 21.1727 1.84908 21.1727 1.84908C21.1727 1.84908 21.1927 1.8691 21.1927 1.94917C21.1927 1.95417 21.1827 2.02423 21.0726 2.23941C20.9775 2.41956 20.8424 2.65476 20.6623 2.96502L16.2836 10.9417L11.935 2.91497C11.7598 2.61472 11.6297 2.38954 11.5497 2.23441C11.4546 2.06426 11.4446 1.97919 11.4446 1.94917C11.4446 1.87411 11.4446 1.83908 11.5947 1.83908H11.8149V0.723145H6.2002V1.83908H6.42038C6.54048 1.83908 6.58552 1.85909 6.60053 1.8691C6.61054 1.89913 6.64557 2.00922 6.64557 2.35951V10.5163L10.2135 10.0659V6.48295L15.8833 17.5372H16.4488L22.4938 6.37286V8.51465L26.0618 8.06427V2.09929C26.0618 1.99421 26.0818 1.91914 26.1118 1.90413C26.1919 1.85909 26.272 1.83908 26.357 1.83908H26.5772V0.723145H20.8875V1.83908H20.8975Z" fill="white"/>
<path d="M26.1467 16.3411C26.0917 16.3011 26.0667 16.216 26.0667 16.0909V9.90576L22.4987 10.8816V16.131C22.5187 16.221 22.5137 16.2811 22.4837 16.3161C22.4587 16.3461 22.3636 16.4212 22.0483 16.4212H21.8281V17.5371H26.5871V16.4212H26.3669C26.2919 16.4212 26.2218 16.3962 26.1517 16.3361L26.1467 16.3411Z" fill="white"/>
<path d="M10.2184 16.086V13.0835L6.65045 13.9392V15.9709C6.65045 16.2561 6.5954 16.3212 6.60041 16.3212C6.54036 16.3712 6.4703 16.4063 6.38523 16.4213L6.20508 16.4563V17.5322H10.854V16.4163H10.6338C10.2535 16.4163 10.2234 16.2511 10.2234 16.081L10.2184 16.086Z" fill="white"/>
<path d="M1.1059 11.2121C0.5054 11.2872 0.0450153 11.7576 -2.23215e-05 12.338C-0.0600725 13.1387 0.68555 13.7742 1.50624 13.6241L11.9199 11.7375L10.6989 9.99609L1.1059 11.2121Z" fill="#CCCCCC"/>
<path d="M33.5679 7.11851L21.2526 8.6698L20.4219 10.2011L33.6729 7.80408C33.8431 7.77406 33.9632 7.62393 33.9582 7.45379C33.9582 7.43377 33.9582 7.40875 33.9532 7.38873C33.9181 7.21359 33.753 7.09349 33.5679 7.1135V7.11851Z" fill="#CCCCCC"/>
<path d="M0.00488281 12.553C0.0799455 13.2486 0.765518 13.764 1.50614 13.6239L11.9198 11.7373L11.2893 10.8315L0.00488281 12.553Z" fill="#7C7C7C"/>
<path d="M33.9532 7.38867L20.8672 9.38033L20.4219 10.206L33.6729 7.80902C33.8431 7.779 33.9632 7.62887 33.9582 7.45873C33.9582 7.43871 33.9582 7.41369 33.9532 7.39368V7.38867Z" fill="#7C7C7C"/>
</g>
<defs>
<clipPath id="clip0_587_4351">
<rect width="245.5" height="17.8949" fill="white" transform="translate(0 0.0527344)"/>
</clipPath>
</defs>
</svg>
